# xmcd CD database file
#
# Track frame offsets:
#	150
#	16276
#	35363
#	50306
#	64279
#	79767
#	95373
#	110780
#	126943
#	142871
#	157261
#	175861
#
# Disc length: 2585 seconds
#
# Revision: 2
# Processed by: cddbd v1.5.2PL0 Copyright (c) Steve Scherf et al.
# Submitted via: CDex 1.51
#
DISCID=9f0a170c
DTITLE=Lonestar - Life As We Know It
DYEAR=2013
DGENRE=Country
TTITLE0=The Countdown
TTITLE1=Maybe Someday
TTITLE2=How Can She Be Everywhere
TTITLE3=Pretty Good Day
TTITLE4=With My Eyes Open
TTITLE5=Party All Day
TTITLE6=Life As We Know It
TTITLE7=If It Wasn't For You
TTITLE8=I Miss When
TTITLE9=I Did It For The Girl
TTITLE10=Just The Rain
TTITLE11=Oh Yeah
EXTD=YEAR: 2013
EXTT0=
EXTT1=
EXTT2=
EXTT3=
EXTT4=
EXTT5=
EXTT6=
EXTT7=
EXTT8=
EXTT9=
EXTT10=
EXTT11=
PLAYORDER=
